<svg width="305" height="37" viewBox="0 0 305 37" fill="none" xmlns="http://www.w3.org/2000/svg">
<path d="M86.5888 18.3546C86.5888 19.0078 86.4389 19.6074 86.1391 20.1535C85.8393 20.6889 85.3789 21.1226 84.7578 21.4545C84.1368 21.7865 83.3658 21.9524 82.4449 21.9524H80.7424V26H77.9958V14.7247H82.4449C83.3444 14.7247 84.1046 14.8799 84.7257 15.1905C85.3467 15.501 85.8125 15.9293 86.123 16.4754C86.4336 17.0215 86.5888 17.6479 86.5888 18.3546ZM82.2361 19.7681C82.7608 19.7681 83.1516 19.6449 83.4086 19.3986C83.6656 19.1524 83.7941 18.8044 83.7941 18.3546C83.7941 17.9049 83.6656 17.5569 83.4086 17.3106C83.1516 17.0643 82.7608 16.9412 82.2361 16.9412H80.7424V19.7681H82.2361ZM98.5873 26L96.2423 21.7436H95.5838V26H92.8372V14.7247H97.4469C98.3357 14.7247 99.0906 14.8799 99.7116 15.1905C100.343 15.501 100.815 15.9293 101.125 16.4754C101.436 17.0108 101.591 17.6104 101.591 18.2743C101.591 19.0239 101.377 19.6931 100.948 20.282C100.531 20.871 99.9097 21.2886 99.0852 21.5348L101.687 26H98.5873ZM95.5838 19.8002H97.2863C97.7896 19.8002 98.1644 19.677 98.4106 19.4308C98.6676 19.1845 98.7961 18.8365 98.7961 18.3868C98.7961 17.9584 98.6676 17.6211 98.4106 17.3749C98.1644 17.1286 97.7896 17.0054 97.2863 17.0054H95.5838V19.8002ZM110.88 14.7247V26H108.133V14.7247H110.88ZM127.776 26H125.029L120.435 19.0453V26H117.689V14.7247H120.435L125.029 21.7115V14.7247H127.776V26ZM134.119 20.3463C134.119 19.2327 134.36 18.2422 134.842 17.3749C135.324 16.4968 135.993 15.8169 136.85 15.335C137.717 14.8425 138.697 14.5962 139.789 14.5962C141.128 14.5962 142.273 14.9495 143.226 15.6563C144.179 16.363 144.816 17.3267 145.138 18.5474H142.118C141.893 18.0762 141.572 17.7175 141.154 17.4712C140.747 17.225 140.282 17.1018 139.757 17.1018C138.911 17.1018 138.226 17.3963 137.701 17.9852C137.176 18.5741 136.914 19.3612 136.914 20.3463C136.914 21.3314 137.176 22.1184 137.701 22.7073C138.226 23.2963 138.911 23.5907 139.757 23.5907C140.282 23.5907 140.747 23.4676 141.154 23.2213C141.572 22.975 141.893 22.6163 142.118 22.1452H145.138C144.816 23.3659 144.179 24.3296 143.226 25.0363C142.273 25.7323 141.128 26.0803 139.789 26.0803C138.697 26.0803 137.717 25.8394 136.85 25.3575C135.993 24.865 135.324 24.185 134.842 23.3177C134.36 22.4504 134.119 21.4599 134.119 20.3463ZM154.385 16.9251V19.2059H158.063V21.326H154.385V23.7995H158.545V26H151.638V14.7247H158.545V16.9251H154.385ZM204.78 20.2178C205.433 20.357 205.958 20.6836 206.354 21.1975C206.75 21.7008 206.948 22.279 206.948 22.9322C206.948 23.8745 206.616 24.624 205.952 25.1809C205.299 25.727 204.384 26 203.206 26H197.954V14.7247H203.029C204.175 14.7247 205.069 14.987 205.711 15.5117C206.365 16.0364 206.691 16.7485 206.691 17.6479C206.691 18.3118 206.514 18.8632 206.161 19.3023C205.818 19.7413 205.358 20.0465 204.78 20.2178ZM200.7 19.2862H202.499C202.949 19.2862 203.291 19.1898 203.527 18.9971C203.773 18.7936 203.896 18.4992 203.896 18.1137C203.896 17.7282 203.773 17.4338 203.527 17.2303C203.291 17.0269 202.949 16.9251 202.499 16.9251H200.7V19.2862ZM202.724 23.7835C203.184 23.7835 203.538 23.6818 203.784 23.4783C204.041 23.2642 204.169 22.959 204.169 22.5628C204.169 22.1666 204.036 21.8561 203.768 21.6312C203.511 21.4064 203.152 21.2939 202.692 21.2939H200.7V23.7835H202.724ZM216.106 23.8799H219.704V26H213.36V14.7247H216.106V23.8799ZM232.852 24.0083H228.643L227.969 26H225.094L229.173 14.7247H232.354L236.433 26H233.526L232.852 24.0083ZM232.145 21.8882L230.747 17.7603L229.366 21.8882H232.145ZM242.028 20.3463C242.028 19.2327 242.269 18.2422 242.75 17.3749C243.232 16.4968 243.902 15.8169 244.758 15.335C245.625 14.8425 246.605 14.5962 247.697 14.5962C249.036 14.5962 250.182 14.9495 251.135 15.6563C252.088 16.363 252.725 17.3267 253.046 18.5474H250.026C249.802 18.0762 249.48 17.7175 249.063 17.4712C248.656 17.225 248.19 17.1018 247.665 17.1018C246.819 17.1018 246.134 17.3963 245.609 17.9852C245.085 18.5741 244.822 19.3612 244.822 20.3463C244.822 21.3314 245.085 22.1184 245.609 22.7073C246.134 23.2963 246.819 23.5907 247.665 23.5907C248.19 23.5907 248.656 23.4676 249.063 23.2213C249.48 22.975 249.802 22.6163 250.026 22.1452H253.046C252.725 23.3659 252.088 24.3296 251.135 25.0363C250.182 25.7323 249.036 26.0803 247.697 26.0803C246.605 26.0803 245.625 25.8394 244.758 25.3575C243.902 24.865 243.232 24.185 242.75 23.3177C242.269 22.4504 242.028 21.4599 242.028 20.3463ZM266.084 26L262.293 21.0209V26H259.546V14.7247H262.293V19.6717L266.051 14.7247H269.28L264.911 20.2499L269.44 26H266.084Z" fill="white"/>
<path d="M182.202 26L180.677 24.442C180.13 25.0417 179.547 25.486 178.926 25.7751C178.305 26.0535 177.603 26.1927 176.822 26.1927C176.072 26.1927 175.408 26.0535 174.83 25.7751C174.252 25.486 173.802 25.0845 173.481 24.5705C173.16 24.0565 172.999 23.4623 172.999 22.7877C172.999 21.9953 173.224 21.3046 173.674 20.7157C174.123 20.1268 174.782 19.6663 175.649 19.3344C175.274 18.9168 175.001 18.5313 174.83 18.1779C174.659 17.8139 174.573 17.423 174.573 17.0054C174.573 16.288 174.83 15.7098 175.344 15.2708C175.858 14.8211 176.543 14.5962 177.4 14.5962C178.203 14.5962 178.856 14.8264 179.36 15.2868C179.863 15.7473 180.098 16.3469 180.066 17.0858H178.942C178.953 16.6039 178.803 16.2238 178.492 15.9454C178.192 15.667 177.812 15.5278 177.352 15.5278C176.859 15.5278 176.458 15.667 176.147 15.9454C175.847 16.2131 175.697 16.5611 175.697 16.9894C175.697 17.332 175.788 17.664 175.97 17.9852C176.163 18.3064 176.463 18.6866 176.87 19.1256L180.564 22.868C180.714 22.6645 180.917 22.3433 181.174 21.9043L182.202 20.1857H183.407L182.186 22.2897C181.897 22.793 181.608 23.2427 181.319 23.6389L183.664 26H182.202ZM176.822 25.213C177.454 25.213 178.016 25.0898 178.508 24.8436C179.011 24.5973 179.488 24.2118 179.938 23.6871L176.356 20.0572C174.868 20.6033 174.123 21.5027 174.123 22.7555C174.123 23.2267 174.236 23.6496 174.461 24.0244C174.696 24.3885 175.017 24.6776 175.424 24.8917C175.831 25.1059 176.297 25.213 176.822 25.213Z" fill="#FEBE5D"/>
<path d="M32.7285 28.5461C31.2746 27.7153 30.0877 26.4988 29.1679 24.8965C28.2481 23.2942 27.7881 21.4694 27.7881 19.422C27.7881 17.2263 28.3074 15.2531 29.3459 13.5025C30.3844 11.7519 31.8532 10.3721 33.7522 9.36328C35.6215 8.35443 37.8024 7.85001 40.2948 7.85001C42.7576 7.85001 44.9533 8.35443 46.882 9.36328C48.8107 10.3721 50.3091 11.7667 51.3773 13.547C52.4455 15.2976 52.9795 17.256 52.9795 19.422C52.9795 21.5287 52.5196 23.3832 51.5998 24.9855C50.68 26.5581 49.5079 27.745 48.0837 28.5461L52.579 28.5461L52.579 32.5963L19.6432 32.5963L19.6432 28.5461L32.7285 28.5461ZM40.2948 11.9892C38.4552 11.9892 36.8529 12.3601 35.488 13.1019C34.1231 13.8437 33.0846 14.8526 32.3724 16.1285C31.6603 17.3747 31.3043 18.7544 31.3043 20.2677C31.3043 21.7513 31.6752 23.131 32.417 24.4069C33.1291 25.6531 34.1824 26.662 35.577 27.4334C36.9419 28.1752 38.5294 28.5461 40.3393 28.5461C42.179 28.5461 43.7961 28.1752 45.1907 27.4334C46.5556 26.662 47.6089 25.6531 48.3507 24.4069C49.0629 23.131 49.4189 21.7513 49.4189 20.2677C49.4189 18.7544 49.0629 17.3747 48.3507 16.1285C47.6089 14.8526 46.5556 13.8437 45.1907 13.1019C43.7961 12.3601 42.1642 11.9892 40.2948 11.9892Z" fill="#FEBE5D"/>
<path d="M21.105 28.5461C19.7104 27.745 18.5532 26.5581 17.6334 24.9855C16.6839 23.3832 16.2092 21.5287 16.2092 19.422C16.2092 17.256 16.7284 15.2976 17.7669 13.547C18.8055 11.7667 20.2742 10.3721 22.1732 9.36328C24.0425 8.35443 26.2234 7.85001 28.7159 7.85001C31.1786 7.85001 33.3743 8.35443 35.303 9.36328C37.2317 10.3721 38.7301 11.7667 39.7983 13.547C40.8665 15.2976 41.4006 17.256 41.4006 19.422C41.4006 21.4991 40.9407 23.3387 40.0208 24.941C39.0713 26.5136 37.8993 27.7153 36.5047 28.5461L52.572 28.5461L52.572 32.5963L16.6097 32.5963L16.6097 28.5461L21.105 28.5461ZM28.7159 11.9892C26.8762 11.9892 25.2739 12.3601 23.909 13.1019C22.5441 13.8437 21.5056 14.8526 20.7935 16.1285C20.0813 17.3747 19.7253 18.7544 19.7253 20.2677C19.7253 21.7513 20.0962 23.131 20.838 24.4069C21.5501 25.6531 22.6035 26.662 23.998 27.4334C25.3629 28.1752 26.9504 28.5461 28.7604 28.5461C30.6 28.5461 32.2171 28.1752 33.6117 27.4334C34.9766 26.662 36.03 25.6531 36.7718 24.4069C37.4839 23.131 37.8399 21.7513 37.8399 20.2677C37.8399 18.7544 37.4839 17.3747 36.7718 16.1285C36.03 14.8526 34.9766 13.8437 33.6117 13.1019C32.2171 12.3601 30.5852 11.9892 28.7159 11.9892Z" fill="#FEBE5D"/>
<circle cx="34.8039" cy="3.96474" r="2.20278" fill="#FEBE5D"/>
</svg>
